<svg width="51" height="51" viewBox="0 0 51 51" fill="none" xmlns="http://www.w3.org/2000/svg">
  <defs>
    <linearGradient id="grad1" x1="0%" y1="0%" x2="100%" y2="100%">
      <stop offset="0%" style="stop-color:#4200C7;stop-opacity:1" />
      <stop offset="100%" style="stop-color:#C7006A;stop-opacity:1" />
    </linearGradient>
  </defs>
  <path fill-rule="evenodd" clip-rule="evenodd" d="M27.9547 7.1396C26.5288 6.39585 24.5972 6.38522 23.1586 7.12685C17.6485 9.97435 12.6505 13.2362 8.27083 16.8551C7.59295 17.414 7.1127 18.2278 7.1212 19.1841C7.1297 20.1382 7.61845 20.9393 8.29208 21.4897C12.6356 25.0406 17.6378 28.3067 23.046 31.1308C24.474 31.8746 26.4035 31.8852 27.8421 31.1436C33.3522 28.2961 38.3502 25.0342 42.7298 21.4153C43.4077 20.8565 43.888 20.0426 43.8795 19.0863C43.871 18.1322 43.3801 17.3311 42.7086 16.7807C38.3651 13.2298 33.3628 9.96372 27.9547 7.1396ZM24.6185 9.95947C24.9116 9.82914 25.2291 9.76233 25.5499 9.76343C25.8707 9.76453 26.1877 9.83351 26.48 9.96585C31.6416 12.6603 36.3973 15.7607 40.5177 19.1076C36.374 22.5097 31.631 25.5995 26.3801 28.311C25.8701 28.5745 25.035 28.5723 24.5207 28.3046C19.3591 25.6101 14.6033 22.5097 10.4808 19.1628C14.6267 15.7607 19.3697 12.671 24.6206 9.95947" fill="url(#grad1)"/>
  <path d="M45.0429 26.9837C45.2665 27.3422 45.3386 27.7748 45.2434 28.1864C45.1482 28.5981 44.8934 28.955 44.5351 29.1789L31.5577 37.2815C29.7961 38.3822 27.6116 38.8901 25.4993 38.8901C23.3871 38.8901 21.2026 38.3801 19.4409 37.2836L6.60594 29.2724C6.24722 29.0486 5.99207 28.6915 5.89663 28.2797C5.80118 27.8678 5.87326 27.4349 6.097 27.0762C6.32075 26.7174 6.67783 26.4623 7.08969 26.3669C7.50156 26.2714 7.93447 26.3435 8.29319 26.5672L21.1282 34.5785C22.2842 35.301 23.8546 35.7026 25.4993 35.7026C27.1419 35.7026 28.7123 35.2989 29.8683 34.5764L42.8478 26.4759C43.2063 26.2523 43.6389 26.1802 44.0505 26.2754C44.4621 26.3706 44.8191 26.6254 45.0429 26.9837Z" fill="url(#grad1)"/>
  <path d="M44.8549 34.7482C45.0785 35.1067 45.1506 35.5393 45.0554 35.9509C44.9602 36.3625 44.7054 36.7195 44.3471 36.9433L33.1101 43.9643C30.8618 45.3668 28.0526 46.0277 25.3113 46.0277C22.5743 46.0277 19.7651 45.3689 17.5147 43.9664L6.41794 37.0389C6.05922 36.8149 5.80418 36.4576 5.70894 36.0455C5.61369 35.6334 5.68604 35.2004 5.91007 34.8417C6.13409 34.483 6.49144 34.2279 6.90351 34.1327C7.31557 34.0374 7.74859 34.1098 8.10732 34.3338L19.2041 41.2613C20.8467 42.2877 23.0439 42.8402 25.3134 42.8402C27.5829 42.8402 29.7802 42.2877 31.4228 41.2613L42.6598 34.2424C42.8374 34.1314 43.0351 34.0564 43.2417 34.0219C43.4483 33.9873 43.6596 33.9938 43.8637 34.0409C44.0678 34.0881 44.2605 34.175 44.431 34.2968C44.6014 34.4185 44.7462 34.5726 44.8571 34.7503" fill="url(#grad1)"/>
</svg>