<svg width="27" height="27" viewBox="0 0 27 27" fill="none" xmlns="http://www.w3.org/2000/svg">
<path fill-rule="evenodd" clip-rule="evenodd" d="M14.7991 3.78071C14.0442 3.38696 13.0216 3.38133 12.26 3.77396C9.34284 5.28146 6.69684 7.00833 4.37821 8.92421C4.01934 9.22008 3.76509 9.65096 3.76959 10.1572C3.77409 10.6623 4.03284 11.0865 4.38946 11.3778C6.68896 13.2577 9.33722 14.9868 12.2003 16.482C12.9563 16.8757 13.9778 16.8813 14.7395 16.4887C17.6566 14.9812 20.3026 13.2543 22.6212 11.3385C22.9801 11.0426 23.2343 10.6117 23.2298 10.1055C23.2253 9.60033 22.9655 9.17621 22.61 8.88483C20.3105 7.00496 17.6622 5.27583 14.7991 3.78071ZM13.0328 5.27358C13.188 5.20458 13.3561 5.16921 13.526 5.16979C13.6958 5.17038 13.8636 5.2069 14.0183 5.27696C16.751 6.70346 19.2687 8.34483 21.4501 10.1167C19.2563 11.9178 16.7453 13.5536 13.9655 14.9891C13.6955 15.1286 13.2533 15.1275 12.9811 14.9857C10.2485 13.5592 7.73072 11.9178 5.54822 10.146C7.74309 8.34483 10.2541 6.70908 13.034 5.27358" fill="#4144ff"/>
<path d="M23.8479 14.2854C23.9662 14.4752 24.0044 14.7042 23.954 14.9221C23.9036 15.14 23.7687 15.329 23.579 15.4475L16.7086 19.7371C15.776 20.3199 14.6195 20.5888 13.5012 20.5888C12.383 20.5888 11.2265 20.3188 10.2939 19.7383L3.49887 15.497C3.30896 15.3786 3.17388 15.1895 3.12335 14.9715C3.07282 14.7534 3.11098 14.5242 3.22943 14.3343C3.34789 14.1444 3.53693 14.0093 3.75498 13.9588C3.97302 13.9083 4.20221 13.9464 4.39212 14.0649L11.1871 18.3061C11.7991 18.6886 12.6305 18.9013 13.5012 18.9013C14.3709 18.9013 15.2022 18.6875 15.8142 18.305L22.6857 14.0165C22.8755 13.8981 23.1046 13.86 23.3225 13.9104C23.5404 13.9608 23.7294 14.0957 23.8479 14.2854Z" fill="#4144ff"/>
<path d="M23.8476 18.5094C23.966 18.6992 24.0042 18.9282 23.9537 19.1461C23.9033 19.364 23.7684 19.553 23.5787 19.6715L17.6297 23.3885C16.4395 24.131 14.9522 24.4809 13.501 24.4809C12.052 24.4809 10.5647 24.1321 9.37336 23.3896L3.49861 19.7221C3.3087 19.6035 3.17368 19.4143 3.12325 19.1962C3.07283 18.978 3.11113 18.7488 3.22973 18.5589C3.34833 18.369 3.53752 18.2339 3.75567 18.1835C3.97382 18.1331 4.20307 18.1714 4.39298 18.29L10.2677 21.9575C11.1374 22.5009 12.3006 22.7934 13.5021 22.7934C14.7036 22.7934 15.8669 22.5009 16.7365 21.9575L22.6855 18.2416C22.7795 18.1828 22.8842 18.1432 22.9935 18.1249C23.1029 18.1066 23.2148 18.11 23.3228 18.135C23.4309 18.1599 23.5329 18.2059 23.6232 18.2704C23.7134 18.3348 23.7901 18.4164 23.8487 18.5105" fill="#4144ff"/>
</svg>
