<svg width="26" height="32" viewBox="0 0 26 32" fill="none" xmlns="http://www.w3.org/2000/svg">
<path d="M7.33333 5.08398V7.91732H3.08333V26.334H22.9167V7.91732H18.6667V5.08398H22.9167C23.6681 5.08398 24.3888 5.3825 24.9201 5.91385C25.4515 6.4452 25.75 7.16587 25.75 7.91732V26.334C25.75 27.0854 25.4515 27.8061 24.9201 28.3375C24.3888 28.8688 23.6681 29.1673 22.9167 29.1673H3.08333C2.33189 29.1673 1.61122 28.8688 1.07986 28.3375C0.548511 27.8061 0.25 27.0854 0.25 26.334V7.91732C0.25 7.16587 0.548511 6.4452 1.07986 5.91385C1.61122 5.3825 2.33189 5.08398 3.08333 5.08398H7.33333ZM13 0.833984C13.3757 0.833984 13.7361 0.98324 14.0017 1.24892C14.2674 1.51459 14.4167 1.87493 14.4167 2.25065V17.5903L17.0063 15.0007C17.1379 14.869 17.294 14.7646 17.4659 14.6933C17.6378 14.6221 17.822 14.5853 18.0081 14.5853C18.1942 14.5852 18.3785 14.6218 18.5504 14.6929C18.7223 14.7641 18.8786 14.8684 19.0102 14.9999C19.1418 15.1315 19.2463 15.2876 19.3175 15.4595C19.3888 15.6314 19.4255 15.8157 19.4256 16.0017C19.4256 16.1878 19.3891 16.3721 19.3179 16.544C19.2468 16.716 19.1424 16.8722 19.0109 17.0038L14.2509 21.7624C13.9189 22.0942 13.4687 22.2805 12.9993 22.2805C12.5299 22.2805 12.0797 22.0942 11.7477 21.7624L6.98908 17.0038C6.85755 16.8722 6.75324 16.716 6.68209 16.544C6.61094 16.3721 6.57436 16.1878 6.57442 16.0017C6.57449 15.8157 6.6112 15.6314 6.68247 15.4595C6.75374 15.2876 6.85817 15.1315 6.98979 14.9999C7.12141 14.8684 7.27765 14.7641 7.44959 14.6929C7.62153 14.6218 7.8058 14.5852 7.99188 14.5853C8.17795 14.5853 8.3622 14.6221 8.53408 14.6933C8.70597 14.7646 8.86214 14.869 8.99367 15.0007L11.5833 17.5903V2.25065C11.5833 1.87493 11.7326 1.51459 11.9983 1.24892C12.2639 0.98324 12.6243 0.833984 13 0.833984Z" fill="#0088FF"/>
</svg>
