<svg width="21" height="21" viewBox="0 0 21 21" fill="none" xmlns="http://www.w3.org/2000/svg">
<path d="M10.5026 0.0820312C16.2557 0.0820312 20.9193 4.74557 20.9193 10.4987C20.9193 16.2518 16.2557 20.9154 10.5026 20.9154C4.74948 20.9154 0.0859375 16.2518 0.0859375 10.4987C0.0859375 4.74557 4.74948 0.0820312 10.5026 0.0820312ZM10.5026 2.16536C8.29247 2.16536 6.17285 3.04334 4.61005 4.60614C3.04724 6.16895 2.16927 8.28856 2.16927 10.4987C2.16927 12.7088 3.04724 14.8285 4.61005 16.3913C6.17285 17.9541 8.29247 18.832 10.5026 18.832C12.7127 18.832 14.8324 17.9541 16.3952 16.3913C17.958 14.8285 18.8359 12.7088 18.8359 10.4987C18.8359 8.28856 17.958 6.16895 16.3952 4.60614C14.8324 3.04334 12.7127 2.16536 10.5026 2.16536ZM10.5026 4.2487C10.7577 4.24873 11.004 4.3424 11.1947 4.51194C11.3853 4.68148 11.5071 4.9151 11.537 5.16849L11.5443 5.29037V10.0674L14.3641 12.8872C14.5509 13.0747 14.6593 13.3262 14.6674 13.5908C14.6755 13.8553 14.5826 14.113 14.4076 14.3115C14.2325 14.51 13.9885 14.6344 13.725 14.6595C13.4616 14.6846 13.1984 14.6085 12.9891 14.4466L12.8911 14.3602L9.76615 11.2352C9.60425 11.0731 9.50027 10.8622 9.47031 10.6352L9.46094 10.4987V5.29037C9.46094 5.0141 9.57069 4.74915 9.76604 4.5538C9.96139 4.35845 10.2263 4.2487 10.5026 4.2487Z" fill="#0E5FFF"/>
</svg>
