<svg width="18" height="18" viewBox="0 0 45 45" fill="none" xmlns="http://www.w3.org/2000/svg">
<path fill-rule="evenodd" clip-rule="evenodd" d="M34.5487 15.6182C34.1005 16.0659 33.4929 16.3173 32.8594 16.3173C32.2259 16.3173 31.6182 16.0659 31.17 15.6182L24.8906 9.33881V32.8594C24.8906 33.4934 24.6388 34.1015 24.1904 34.5498C23.7421 34.9981 23.134 35.25 22.5 35.25C21.866 35.25 21.2579 34.9981 20.8096 34.5498C20.3612 34.1015 20.1094 33.4934 20.1094 32.8594V9.33881L13.83 15.6182C13.3768 16.0405 12.7774 16.2704 12.1581 16.2594C11.5387 16.2485 10.9478 15.9976 10.5098 15.5596C10.0718 15.1216 9.82093 14.5307 9.81 13.9114C9.79908 13.292 10.029 12.6926 10.4512 12.2394L20.8106 1.88006L22.5 0.1875L24.1894 1.87687L34.5487 12.2363C34.7709 12.4583 34.9471 12.7219 35.0674 13.012C35.1876 13.3022 35.2495 13.6131 35.2495 13.9272C35.2495 14.2413 35.1876 14.5523 35.0674 14.8424C34.9471 15.1326 34.7709 15.3962 34.5487 15.6182ZM4.96875 28.0781C4.96875 27.4441 4.71688 26.836 4.26855 26.3877C3.82022 25.9394 3.21216 25.6875 2.57812 25.6875C1.94409 25.6875 1.33603 25.9394 0.887698 26.3877C0.439369 26.836 0.1875 27.4441 0.1875 28.0781V38.4375C0.1875 40.1283 0.85915 41.7498 2.05469 42.9453C3.25024 44.1408 4.87174 44.8125 6.5625 44.8125H38.4375C40.1283 44.8125 41.7498 44.1408 42.9453 42.9453C44.1408 41.7498 44.8125 40.1283 44.8125 38.4375V28.0781C44.8125 27.4441 44.5606 26.836 44.1123 26.3877C43.664 25.9394 43.0559 25.6875 42.4219 25.6875C41.7878 25.6875 41.1798 25.9394 40.7314 26.3877C40.2831 26.836 40.0312 27.4441 40.0312 28.0781V38.4375C40.0312 38.8602 39.8633 39.2656 39.5645 39.5645C39.2656 39.8633 38.8602 40.0312 38.4375 40.0312H6.5625C6.13981 40.0312 5.73443 39.8633 5.43555 39.5645C5.13666 39.2656 4.96875 38.8602 4.96875 38.4375V28.0781Z" fill="black"/>
</svg>
