<svg width="18" height="18" viewBox="0 0 45 45" fill="none" xmlns="http://www.w3.org/2000/svg">
<path d="M42.3763 26.916C41.7906 26.916 41.2289 27.1487 40.8148 27.5628C40.4006 27.977 40.168 28.5387 40.168 29.1244V37.9577C40.168 38.5434 39.9353 39.1051 39.5212 39.5192C39.107 39.9334 38.5453 40.166 37.9596 40.166H7.04297C6.45728 40.166 5.89558 39.9334 5.48144 39.5192C5.0673 39.1051 4.83464 38.5434 4.83464 37.9577V29.1244C4.83464 28.5387 4.60197 27.977 4.18783 27.5628C3.77369 27.1487 3.21199 26.916 2.6263 26.916C2.04062 26.916 1.47892 27.1487 1.06477 27.5628C0.650632 27.977 0.417969 28.5387 0.417969 29.1244V37.9577C0.417969 39.7147 1.11596 41.3998 2.35839 42.6423C3.60082 43.8847 5.28591 44.5827 7.04297 44.5827H37.9596C39.7167 44.5827 41.4018 43.8847 42.6442 42.6423C43.8867 41.3998 44.5846 39.7147 44.5846 37.9577V29.1244C44.5846 28.5387 44.352 27.977 43.9378 27.5628C43.5237 27.1487 42.962 26.916 42.3763 26.916ZM20.9334 30.6923C21.1434 30.8933 21.3911 31.0509 21.6621 31.156C21.9265 31.2729 22.2123 31.3332 22.5013 31.3332C22.7903 31.3332 23.0761 31.2729 23.3405 31.156C23.6115 31.0509 23.8592 30.8933 24.0692 30.6923L32.9026 21.8589C33.3184 21.4431 33.552 20.8791 33.552 20.291C33.552 19.7029 33.3184 19.1389 32.9026 18.7231C32.4867 18.3073 31.9227 18.0736 31.3346 18.0736C30.7466 18.0736 30.1826 18.3073 29.7667 18.7231L24.7096 23.8023V2.62435C24.7096 2.03866 24.477 1.47696 24.0628 1.06282C23.6487 0.648679 23.087 0.416016 22.5013 0.416016C21.9156 0.416016 21.3539 0.648679 20.9398 1.06282C20.5256 1.47696 20.293 2.03866 20.293 2.62435V23.8023L15.2359 18.7231C15.03 18.5172 14.7855 18.3539 14.5165 18.2424C14.2475 18.131 13.9592 18.0736 13.668 18.0736C13.3768 18.0736 13.0884 18.131 12.8194 18.2424C12.5504 18.3539 12.306 18.5172 12.1001 18.7231C11.8942 18.929 11.7308 19.1734 11.6194 19.4425C11.508 19.7115 11.4506 19.9998 11.4506 20.291C11.4506 20.5822 11.508 20.8705 11.6194 21.1396C11.7308 21.4086 11.8942 21.653 12.1001 21.8589L20.9334 30.6923Z" fill="black"/>
</svg>
