<svg width="18" height="23" viewBox="0 0 18 23" fill="none" xmlns="http://www.w3.org/2000/svg">
<path d="M8.9987 17.4163C9.57333 17.4163 10.1244 17.1881 10.5308 16.7817C10.9371 16.3754 11.1654 15.8243 11.1654 15.2497C11.1654 14.675 10.9371 14.1239 10.5308 13.7176C10.1244 13.3113 9.57333 13.083 8.9987 13.083C8.42406 13.083 7.87296 13.3113 7.46663 13.7176C7.06031 14.1239 6.83203 14.675 6.83203 15.2497C6.83203 15.8243 7.06031 16.3754 7.46663 16.7817C7.87296 17.1881 8.42406 17.4163 8.9987 17.4163ZM15.4987 7.66634C16.0733 7.66634 16.6244 7.89462 17.0308 8.30094C17.4371 8.70727 17.6654 9.25837 17.6654 9.83301V20.6663C17.6654 21.241 17.4371 21.7921 17.0308 22.1984C16.6244 22.6047 16.0733 22.833 15.4987 22.833H2.4987C1.92406 22.833 1.37296 22.6047 0.966633 22.1984C0.560304 21.7921 0.332031 21.241 0.332031 20.6663V9.83301C0.332031 9.25837 0.560304 8.70727 0.966633 8.30094C1.37296 7.89462 1.92406 7.66634 2.4987 7.66634H3.58203V5.49967C3.58203 4.06309 4.15271 2.68533 5.16854 1.66951C6.18436 0.653691 7.56211 0.0830078 8.9987 0.0830078C9.71002 0.0830078 10.4144 0.223114 11.0716 0.495327C11.7287 0.76754 12.3259 1.16653 12.8289 1.66951C13.3318 2.1725 13.7308 2.76963 14.003 3.42681C14.2753 4.08399 14.4154 4.78835 14.4154 5.49967V7.66634H15.4987ZM8.9987 2.24967C8.13674 2.24967 7.31009 2.59208 6.7006 3.20158C6.09111 3.81107 5.7487 4.63772 5.7487 5.49967V7.66634H12.2487V5.49967C12.2487 4.63772 11.9063 3.81107 11.2968 3.20158C10.6873 2.59208 9.86065 2.24967 8.9987 2.24967Z" fill="#313131"/>
</svg>
