<svg width="21" height="16" viewBox="0 0 21 16" fill="none" xmlns="http://www.w3.org/2000/svg">
<path d="M14.7891 13.2158V15.1769H0.816406V13.2158C0.816406 13.2158 0.816406 9.29367 7.80278 9.29367C14.7891 9.29367 14.7891 13.2158 14.7891 13.2158ZM11.296 3.90069C11.296 3.22192 11.0911 2.5584 10.7073 1.99402C10.3234 1.42965 9.77785 0.989777 9.13956 0.730024C8.50126 0.470272 7.7989 0.402309 7.12129 0.534729C6.44368 0.66715 5.82125 0.994007 5.33272 1.47397C4.84419 1.95393 4.5115 2.56543 4.37671 3.23116C4.24193 3.89688 4.3111 4.58692 4.57549 5.21402C4.83988 5.84112 5.28761 6.37711 5.86207 6.75421C6.43652 7.13131 7.11189 7.33259 7.80278 7.33259C8.72923 7.33259 9.61773 6.97101 10.2728 6.32741C10.9279 5.6838 11.296 4.81088 11.296 3.90069ZM14.7293 9.29367C15.3428 9.76016 15.8449 10.3531 16.2001 11.0307C16.5553 11.7083 16.755 12.4542 16.7852 13.2158V15.1769H20.7775V13.2158C20.7775 13.2158 20.7775 9.65647 14.7293 9.29367ZM13.7911 0.468786C13.1042 0.465647 12.4325 0.667377 11.8648 1.04731C12.4711 1.87953 12.7971 2.87728 12.7971 3.90069C12.7971 4.92409 12.4711 5.92184 11.8648 6.75407C12.4325 7.134 13.1042 7.33573 13.7911 7.33259C14.7175 7.33259 15.606 6.97101 16.2611 6.32741C16.9162 5.6838 17.2843 4.81088 17.2843 3.90069C17.2843 2.99049 16.9162 2.11757 16.2611 1.47397C15.606 0.83036 14.7175 0.468786 13.7911 0.468786Z" fill="#E36600"/>
</svg>
