<svg width="18" height="20" viewBox="0 0 20 22" fill="none" xmlns="http://www.w3.org/2000/svg">
<path d="M1.33203 5.58333H18.6654M7.83203 9.91667V16.4167M12.1654 9.91667V16.4167M2.41536 5.58333L3.4987 18.5833C3.4987 19.158 3.72697 19.7091 4.1333 20.1154C4.53963 20.5217 5.09073 20.75 5.66536 20.75H14.332C14.9067 20.75 15.4578 20.5217 15.8641 20.1154C16.2704 19.7091 16.4987 19.158 16.4987 18.5833L17.582 5.58333M6.7487 5.58333V2.33333C6.7487 2.04602 6.86283 1.77047 7.066 1.5673C7.26916 1.36414 7.54471 1.25 7.83203 1.25H12.1654C12.4527 1.25 12.7282 1.36414 12.9314 1.5673C13.1346 1.77047 13.2487 2.04602 13.2487 2.33333V5.58333" stroke="#FF4151" stroke-width="2" stroke-linecap="round" stroke-linejoin="round"/>
</svg>
