<svg width="31" height="31" viewBox="0 0 31 31" fill="none" xmlns="http://www.w3.org/2000/svg">
<path d="M5.16797 9.04167H25.8346M12.918 14.2083V21.9583M18.0846 14.2083V21.9583M6.45964 9.04167L7.7513 24.5417C7.7513 25.2268 8.02347 25.8839 8.50794 26.3684C8.99241 26.8528 9.64949 27.125 10.3346 27.125H20.668C21.3531 27.125 22.0102 26.8528 22.4947 26.3684C22.9791 25.8839 23.2513 25.2268 23.2513 24.5417L24.543 9.04167M11.6263 9.04167V5.16667C11.6263 4.8241 11.7624 4.49555 12.0046 4.25332C12.2469 4.01109 12.5754 3.875 12.918 3.875H18.0846C18.4272 3.875 18.7557 4.01109 18.998 4.25332C19.2402 4.49555 19.3763 4.8241 19.3763 5.16667V9.04167" stroke="#FF4151" stroke-width="2.75" stroke-linecap="round" stroke-linejoin="round"/>
</svg>
